<svg width="43" height="43" viewBox="0 0 43 43" fill="none" xmlns="http://www.w3.org/2000/svg">
<path d="M22.8582 32.0625H28.1082V37.3125H22.8582V32.0625Z" fill="black"/>
<path d="M32.0457 32.0625H37.2957V37.3125H32.0457V32.0625Z" fill="black"/>
<path d="M22.8582 22.875H28.1082V28.125H22.8582V22.875Z" fill="black"/>
<path d="M32.0457 22.875H37.2957V28.125H32.0457V22.875Z" fill="black"/>
<path d="M37.2957 14.9999H29.4207V9.74994C29.4207 7.51869 27.7145 5.81244 25.4832 5.81244H17.6082C15.377 5.81244 13.6707 7.51869 13.6707 9.74994V14.9999H5.79572C5.00822 14.9999 4.48322 15.5249 4.48322 16.3124V16.5749L6.97697 32.4562C7.10822 33.7687 8.28947 34.6874 9.60197 34.6874H20.2332V32.0624H9.60197L7.37072 17.6249H37.2957V14.9999ZM16.2957 9.74994C16.2957 8.96244 16.8207 8.43744 17.6082 8.43744H25.4832C26.2707 8.43744 26.7957 8.96244 26.7957 9.74994V14.9999H16.2957V9.74994Z" fill="black"/>
</svg>
