<svg width="38" height="37" viewBox="0 0 38 37" fill="none" xmlns="http://www.w3.org/2000/svg">
<path d="M18.891 9.38989C17.7571 9.38989 16.6487 9.72612 15.706 10.3561C14.7632 10.986 14.0284 11.8814 13.5945 12.9289C13.1606 13.9765 13.047 15.1292 13.2682 16.2412C13.4894 17.3533 14.0355 18.3748 14.8372 19.1766C15.639 19.9783 16.6605 20.5243 17.7726 20.7455C18.8846 20.9667 20.0373 20.8532 21.0849 20.4193C22.1324 19.9854 23.0278 19.2506 23.6577 18.3078C24.2877 17.3651 24.6239 16.2567 24.6239 15.1228C24.6239 13.6023 24.0199 12.1441 22.9448 11.069C21.8696 9.99389 20.4114 9.38989 18.891 9.38989Z" fill="black"/>
<path d="M18.891 2.51038C15.7162 2.51038 12.6127 3.45182 9.97291 5.21565C7.33316 6.97948 5.27572 9.48647 4.06077 12.4196C2.84582 15.3528 2.52794 18.5803 3.14731 21.6941C3.76669 24.8079 5.2955 27.6681 7.54043 29.9131C9.78536 32.158 12.6456 33.6868 15.7594 34.3062C18.8732 34.9255 22.1007 34.6077 25.0339 33.3927C27.967 32.1778 30.474 30.1203 32.2378 27.4806C34.0017 24.8408 34.9431 21.7373 34.9431 18.5625C34.9383 14.3067 33.2456 10.2265 30.2363 7.21723C27.2269 4.20791 23.1468 2.51517 18.891 2.51038ZM28.055 28.7966C28.0322 27.2926 27.4194 25.8577 26.3487 24.8013C25.2779 23.7448 23.8349 23.1514 22.3307 23.1488H15.4513C13.9471 23.1514 12.5041 23.7448 11.4333 24.8013C10.3626 25.8577 9.74975 27.2926 9.72695 28.7966C7.6477 26.94 6.18142 24.4957 5.52225 21.7872C4.86309 19.0787 5.04214 16.234 6.0357 13.6295C7.02925 11.0251 8.79045 8.78385 11.0861 7.2026C13.3817 5.62135 16.1035 4.77467 18.891 4.77467C21.6785 4.77467 24.4003 5.62135 26.6959 7.2026C28.9915 8.78385 30.7527 11.0251 31.7463 13.6295C32.7398 16.234 32.9189 19.0787 32.2597 21.7872C31.6006 24.4957 30.1343 26.94 28.055 28.7966Z" fill="black"/>
</svg>
